<?xml version="1.0" encoding="UTF-8" standalone="no"?>
<svg
   id="Layer_1"
   data-name="Layer 1"
   viewBox="0 0 142.16081 306.5148"
   version="1.1"
   sodipodi:docname="rainlogo.svg"
   width="142.16081"
   height="306.5148"
   inkscape:version="1.4 (e7c3feb100, 2024-10-09)"
   xmlns:inkscape="http://www.inkscape.org/namespaces/inkscape"
   xmlns:sodipodi="http://sodipodi.sourceforge.net/DTD/sodipodi-0.dtd"
   xmlns="http://www.w3.org/2000/svg"
   xmlns:svg="http://www.w3.org/2000/svg">
  <sodipodi:namedview
     id="namedview2"
     pagecolor="#ffffff"
     bordercolor="#000000"
     borderopacity="0.25"
     inkscape:showpageshadow="2"
     inkscape:pageopacity="0.0"
     inkscape:pagecheckerboard="0"
     inkscape:deskcolor="#d1d1d1"
     inkscape:clip-to-page="false"
     inkscape:zoom="0.80171595"
     inkscape:cx="132.2164"
     inkscape:cy="145.93697"
     inkscape:window-width="1240"
     inkscape:window-height="755"
     inkscape:window-x="-5"
     inkscape:window-y="22"
     inkscape:window-maximized="0"
     inkscape:current-layer="Layer_1" />
  <defs
     id="defs1">
    <style
       id="style1">
      .cls-1 {
        fill: #000;
      }

      .cls-1, .cls-2 {
        stroke-width: 0px;
      }

      .cls-2 {
        fill: #fff;
      }
    </style>
  </defs>
  <path
     class="cls-1"
     d="m 119.17082,281.58611 c -0.77,-0.38 -1.38,-0.69 -1.99,-0.99 -0.17,0.23 -0.34,0.45 -0.52,0.68 1.27,1.06 2.55,2.13 3.94,3.29 -0.65,0 -1.49,-0.19 -2.19,0.04 -1.16,0.38 -2.69,0.74 -3.25,1.62 -2.55,4.06 -6.49,6.39 -10.04,9.32 -1.89,1.56 -4.11,2.46 -5.980001,3.96 -2.27,1.81 -5.35,2.62 -8.14,3.72 -3.43,1.36 -7.46,0.71 -10.61,3.2 -0.43,0.34 -1.6,-0.41 -2.41,-0.37 -3.93,0.15 -7.79,0.16 -11.43,-1.76 -0.54,-0.28 -1.54,0.33 -1.99,0.44 -2.28,-1.01 -4.37,-1.82 -6.35,-2.85 -2.01,-1.05 -4.02,-2.17 -5.82,-3.54 -4.41,-3.36 -9.14,-6.32 -12.64,-10.83 -0.77,-1 -3.17,-0.73 -4.82,-1.04 1.1,-0.61 2.29,-1.26 3.09,-1.7 -1.41,-1.52 -2.56,-2.64 -3.58,-3.88 -1.92,-2.36 -3.95,-4.66 -5.56,-7.21 -1.43,-2.27 -2.35,-4.87 -3.54,-7.3 -0.26,-0.53 -0.72,-0.98 -1.13,-1.41 -0.32,-0.34 -0.86,-0.54 -1.06,-0.92 -1.2,-2.26 -2.27,-4.59 -3.52,-6.82 -1.55,-2.76 -3.38,-5.38 -4.85,-8.19 -2.22,-4.25 -4.35,-8.55 -6.2700001,-12.94 -1.04,-2.38 -1.53,-5.01 -2.35,-7.49 -0.36,-1.08 -1.09,-2.05 -1.37,-3.14 -0.98,-3.87 -1.82,-7.77 -2.73,-11.66 -0.11,-0.49 -0.24,-1 -0.49,-1.43 -2.15000003,-3.73 -1.68000003,-8.03 -1.00000003,-11.68 0.66000003,-3.49 1.02000003,-7.12 2.05000003,-10.56 0.17,-0.57 0.94,-0.94 1.24,-1.51 2.29,-4.31 5.35,-7.94 9.0400001,-11.14 3.32,-2.88 6.97,-4.88 11.31,-5.75 1.96,-0.39 3.82,-1.28 6.22,-2.12 1.14,0.94 2.28,0.37 3.68,-1.25 2.15,-2.49 3.49,-5.32 4.99,-8.18 1.91,-3.63 4.59,-6.86 6.93,-10.27 0.74,-1.08 1.43,-2.19 2.14,-3.29 1.89,-2.93 3.71,-5.92 5.7,-8.78 1.58,-2.27 3.43,-4.35 5.03,-6.6 2.04,-2.86 3.97,-5.8 5.92,-8.72 2.49,-3.73 5.03,-7.43 7.39,-11.24 1.71,-2.76 2.98,-5.81 4.77,-8.51 1.9,-2.870002 2.66,-6.430002 5.62,-8.730002 1.16,-0.9 1.35,-2.94 2.29,-4.24 1.28,-1.8 3,-3.29 4.24,-5.11 1.18,-1.73 1.97,-3.73 2.97,-5.59 0.31,-0.57 0.67,-1.14 1.11,-1.6 2.12,-2.23 3.24,-4.94 4.3,-7.8 0.73,-1.98 2.39,-3.6 3.510001,-5.45 0.32,-0.53 0.22,-1.31 0.36,-2.31 1.04,-1.74 2.38,-3.98 3.71,-6.22 0.95,-1.61 1.88,-3.24 2.8,-4.86 0.2,-0.36 0.37,-0.74 0.51,-1.12 2.58,-7.42 2.84,-15.04 2.36,-22.8 -0.13,-2.07 -0.58,-4.21 0.6,-6.45 0.93,-1.77 1.04,-4.27 0.71,-6.32 -0.47,-2.94 1.68,-4.7199997 2.46,-7.0399997 1.09,-3.21 3.83,-5.06 7.35,-5.58 1.34,-0.2 2.31,-2.77 3.96,-0.87 0.99,1.14 1.27,2.96 2.34,3.96 1.58,1.49 1.33,2.51 0.02,3.86 -0.27,0.27 -0.17,1.01 -0.08,1.4999997 1.11,5.72 -1.86,10.29 -4.21,15.04 -0.07,0.15 -0.18,0.32 -0.16,0.48 0.26,3.16 -1.41,5.73 -2.39,8.55 -1.07,3.07 -1.84,6.41 -1.85,9.64 -0.02,5.85 -2.88,11.08 -2.8,17.06 0.07,5.12 -0.06,10.34 -0.44,15.5 -0.08,1.1 -0.7,2.15 -0.87,3.26 -0.12,0.78 0,1.64 0.18,2.42 0.35,1.45 1.18,2.86 1.19,4.29 0.03,5.91 -0.27,11.81 -0.22,17.720002 0.02,2.22 0.68,4.44 1.05,6.65 0.1,0.57 0.24,1.14 0.28,1.71 0.12,1.5 0.2,3.01 0.33,4.99 -0.05,0.03 -0.7,0.37 -2.25,1.19 4.46,0.15 4,2.72 4.09,5.12 0.06,1.5 0.57,2.98 0.77,4.48 0.06,0.49 -0.36,1.03 -0.34,1.54 0.04,1.02 0.08,2.07 0.38,3.03 0.31,0.99 1.22,1.84 1.38,2.83 1.08,6.6 2.9,12.98 5.04,19.3 0.91,2.7 2.72,5.31 1.72,8.47 -0.12,0.4 0.49,1 0.69,1.53 0.95,2.46 3.25,5.49 2.53,7.28 -1.45,3.58 0.77,4.26 2.54,5.85 1.16,1.04 0.67,5.4 -0.76,7.3 2.87,-1.11 3.44,0.37 3.72,2.57 0.36,2.87 2.33,5.49 1.3,8.6 -0.09,0.27 0.49,0.71 0.53,1.09 0.14,1.23 0.17,2.47 0.24,3.64 0.54,2.01 1.21,4.01 1.58,6.06 0.42,2.34 0.79,4.73 0.79,7.1 0,4.63 -0.05,9.27 -0.49,13.87 -0.35,3.66 -1.03,7.35 -2.08,10.88 -1.69,5.69 -3.55,11.36 -5.85,16.83 -1.35,3.23 -3.77,6 -5.53,9.08 -1.37,2.4 -2.36,5.01 -3.69,7.44 -1.68,3.07 -3.54,6.04 -5.41,9.2 z m -80.020001,-105.48 c -2.53,1.44 -4.86,1.73 -5.85,4.43 -0.74,2.03 -2.16,3.8 -3.1,5.77 -0.93,1.93 -1.65,3.97 -2.42,5.97 -0.14,0.37 0,0.85 -0.15,1.2 -1.75,3.93 -3.48,7.88 -5.33,11.76 -0.9,1.89 -0.8,4.43 -3.2,5.39 -1.01,0.4 -2.1,0.62 -3.16,0.86 -0.8,0.19 -1.63,0.29 -2.44,0.43 0.02,-0.99 -0.11,-2.01 0.09,-2.96 0.86,-4.07 1.51,-8.24 2.85,-12.15 0.97,-2.81 2.91,-5.29 4.43,-7.92 0.39,-0.68 0.88,-1.31 1.24,-2.01 0.81,-1.56 1.54,-3.15 2.34,-4.71 0.65,-1.26 1.94,-2.4 0.78,-3.93 -0.98,0.42 -1.78,0.78 -2.6,1.1 -2.25,0.86 -4.74,1.33 -6.68,2.63 -1.98,1.34 -3.63,3.33 -5.04,5.31 -2.5400001,3.55 -5.7600001,7 -5.8100001,11.61 -0.05,4.68 0.72,9.38 1.18,14.06 0.21,2.11 0.32,4.27 0.87,6.3 1,3.7 2.53,7.27 3.3900001,11 1.18,5.07 3.98,9.37 6.13,13.96 2,4.25 4.83,8.11 7.21,12.19 0.63,1.07 0.79,2.43 1.46,3.47 1.08,1.66 2.51,3.1 3.63,4.75 2.68,3.97 5.16,8.08 7.92,11.99 1.42,2.02 4.31,3.55 4.69,5.64 0.67,3.71 2.53,4.16 4.94,3.75 0.21,4.09 5.55,3.82 5.82,7.12 0.95,0.22 1.81,0.22 2.45,0.59 1.94,1.14 3.65,2.88 5.73,3.56 4.95,1.63 9.89,3.46 15.37,2.64 3.59,-0.54 7.19,-0.65 10.6,-2.19 1.8,-0.81 3.87,-0.99 5.8,-1.52 0.46,-0.13 0.86,-0.5 1.26,-0.79 2.92,-2.13 5.83,-4.28 8.760001,-6.41 1.53,-1.11 4.01,-1.37 3.66,-4.15 -0.02,-0.13 0.25,-0.33 0.41,-0.45 4.74,-3.33 7.75,-7.93 10.1,-13.15 2.24,-4.98 4.81,-9.82 7.33,-14.67 0.97,-1.87 2.91,-3.51 3.17,-5.42 0.56,-4.25 1.23,-8.34 3.55,-12.05 0.31,-0.49 0.12,-1.31 0.13,-1.97 0,-0.64 -0.16,-1.3 -0.04,-1.91 0.41,-2.09 1.19,-4.13 1.32,-6.23 0.59,-9.11 0.72,-18.18 -1.55,-27.19 -0.58,-2.29 -2.69,-4.87 -0.51,-7.5 -0.15,-0.08 -0.39,-0.13 -0.43,-0.25 -0.95,-2.56 -1.92,-5.12 -2.8,-7.71 -0.71,-2.1 -1.3,-4.23 -1.97,-6.35 -0.35,-1.12 -0.59,-2.31 -1.15,-3.31 -0.96,-1.7 -0.12,-4.89 -3.37,-4.43 0.66,-0.5 1.42,-1.08 1.62,-1.23 -0.75,-2.27 -1.38,-4.02 -1.89,-5.8 -1.47,-5.06 -3.08,-10.1 -4.28,-15.22 -1.75,-7.47 -3.37,-14.97 -4.72,-22.52 -0.99,-5.53 -1.46,-11.16 -2.18,-16.75 -0.68,-5.24 -1.53,-10.46 -2.03,-15.720002 -0.4,-4.28 -0.42,-8.6 -0.56,-12.9 -0.16,-5.06 -0.27,-10.13 -0.42,-15.2 -0.02,-0.67 -0.16,-1.33 -0.24,-2 -0.57,0.55 -1.32,1.01 -1.67,1.68 -2.11,4.07 -4.140001,8.18 -6.180001,12.28 -0.72,1.46 -1.41,2.93 -2.31,4.81 -0.3,0.15 -1.61,0.37 -1.84,0.99 -1.19,3.2 -2.73,6.11 -5.25,8.47 -0.22,0.21 -0.16,0.68 -0.35,0.95 -1.71,2.48 -3.44,4.94 -5.16,7.420002 -0.91,1.32 -1.8,2.67 -2.7,4 -0.35,1.11 -1.18,1.91 -1.83,2.85 -0.89,1.28 -1.69,2.63 -2.45,4 -1.43,2.55 -2.76,5.16 -4.23,7.7 -1.55,2.69 -4.84,4.15 -5.39,7.57 -2.99,0.39 -2.82,2.69 -2.75,4.67 -0.8,0.31 -1.94,0.62 -1.92,0.76 0.34,2.33 -1.63,3.41 -2.61,4.99 -1.65,2.68 -3.36,5.32 -5.14,7.91 -1.63,2.38 -3.79,4.47 -5.02,7.03 -2.27,4.74 -4.2,9.62 -8.84,13.81 1.78,0.56 2.97,1.07 4.21,1.29 2.34,0.41 7.98,-1.15 7.06,1.03"
     id="path2" />
</svg>
