<?xml version="1.0" encoding="UTF-8"?>
<svg id="Layer_1" data-name="Layer 1" xmlns="http://www.w3.org/2000/svg" viewBox="0 0 716 465.56">
  <defs>
    <style>
      .cls-1 {
        fill: #000;
      }

      .cls-1, .cls-2 {
        stroke-width: 0px;
      }

      .cls-2 {
        fill: #fff;
      }
    </style>
  </defs>
  <path class="cls-2" d="M716,0,0,465.56,265.53,314.89c1.33-2.42,2.32-5.04,3.69-7.44,1.76-3.08,4.17-5.85,5.53-9.08,2.29-5.47,4.15-11.14,5.85-16.83,1.05-3.52,1.73-7.21,2.08-10.88.44-4.6.49-9.25.49-13.87,0-2.37-.37-4.76-.79-7.1-.37-2.06-1.05-4.06-1.58-6.06-.07-1.17-.1-2.41-.24-3.64-.04-.38-.62-.82-.53-1.09,1.02-3.11-.94-5.73-1.3-8.6-.28-2.19-.85-3.68-3.72-2.57,1.43-1.9,1.92-6.26.76-7.3-1.78-1.59-3.99-2.28-2.54-5.85.73-1.79-1.58-4.82-2.53-7.28-.21-.53-.82-1.13-.69-1.53,1-3.16-.8-5.77-1.72-8.47-2.14-6.32-3.96-12.7-5.04-19.3-.16-.99-1.07-1.84-1.38-2.83-.3-.96-.35-2.01-.38-3.03-.02-.51.4-1.05.34-1.54-.2-1.5-.71-2.98-.77-4.48-.09-2.4.37-4.97-4.09-5.12,1.55-.82,2.2-1.17,2.25-1.19-.13-1.98-.2-3.48-.33-4.99-.05-.57-.19-1.14-.28-1.71-.37-2.22-1.03-4.43-1.05-6.65-.05-5.9.26-11.81.22-17.72,0-1.43-.84-2.85-1.19-4.29-.19-.78-.3-1.64-.18-2.42.17-1.1.79-2.16.87-3.26.38-5.16.51-10.38.44-15.5-.08-5.98,2.78-11.21,2.8-17.06.01-3.23.78-6.57,1.85-9.64.98-2.82,2.65-5.39,2.39-8.55-.01-.15.09-.33.16-.48,2.34-4.75,5.31-9.32,4.21-15.04-.1-.49-.19-1.23.08-1.5,1.31-1.35,1.57-2.37-.02-3.86-1.07-1.01-1.34-2.82-2.34-3.96-1.66-1.9-2.62.67-3.96.87-3.52.52-6.27,2.36-7.35,5.58-.79,2.33-2.93,4.11-2.46,7.04.33,2.05.22,4.55-.71,6.32-1.18,2.24-.73,4.38-.6,6.45.48,7.76.22,15.38-2.36,22.8-.13.39-.3.77-.51,1.12-.92,1.63-1.85,3.25-2.8,4.86-1.32,2.25-2.67,4.48-3.71,6.22-.14,1-.04,1.78-.36,2.31-1.12,1.85-2.78,3.47-3.51,5.45-1.06,2.86-2.18,5.57-4.3,7.8-.44.47-.8,1.03-1.11,1.6-1,1.86-1.79,3.86-2.97,5.59-1.24,1.82-2.96,3.31-4.24,5.11-.93,1.31-1.13,3.35-2.29,4.24-2.96,2.3-3.72,5.86-5.62,8.73-1.79,2.7-3.06,5.75-4.77,8.51-2.36,3.81-4.9,7.51-7.39,11.24-1.95,2.92-3.88,5.86-5.92,8.72-1.61,2.25-3.46,4.33-5.03,6.6-1.99,2.87-3.81,5.85-5.7,8.78-.71,1.1-1.4,2.21-2.14,3.29-2.33,3.41-5.02,6.64-6.93,10.27-1.5,2.86-2.84,5.69-4.99,8.18-1.4,1.62-2.55,2.19-3.68,1.25-2.4.83-4.26,1.73-6.22,2.12-4.34.87-7.99,2.86-11.31,5.75-3.69,3.2-6.75,6.83-9.04,11.14-.3.57-1.07.94-1.24,1.51-1.03,3.44-1.39,7.07-2.05,10.56-.69,3.65-1.15,7.95,1,11.68.25.43.37.94.49,1.43.91,3.89,1.76,7.79,2.73,11.66.27,1.09,1.01,2.06,1.37,3.14.82,2.49,1.31,5.11,2.35,7.49,1.92,4.39,4.05,8.69,6.27,12.94,1.47,2.81,3.29,5.42,4.85,8.19,1.25,2.23,2.31,4.56,3.52,6.82.21.39.74.58,1.06.92.41.44.87.88,1.13,1.41,1.19,2.43,2.11,5.03,3.54,7.3,1.61,2.56,3.64,4.86,5.56,7.21,1.01,1.24,2.17,2.37,3.58,3.88-.8.44-1.99,1.09-3.09,1.7,1.65.31,4.05.05,4.82,1.04,3.5,4.51,8.23,7.47,12.64,10.83,1.8,1.37,3.81,2.49,5.82,3.54,1.98,1.03,4.07,1.84,6.35,2.85.45-.11,1.46-.72,1.99-.44,3.63,1.92,7.5,1.91,11.43,1.76.82-.03,1.98.71,2.41.37,3.15-2.49,7.18-1.84,10.61-3.2,2.79-1.1,5.87-1.92,8.14-3.72,1.88-1.5,4.1-2.4,5.98-3.96,3.55-2.93,7.49-5.26,10.04-9.32.55-.88,2.09-1.24,3.25-1.62.7-.23,1.54-.04,2.19-.04-1.39-1.16-2.67-2.22-3.94-3.29.17-.23.34-.45.52-.68.61.31,1.22.61,1.99.99"/>
  <path class="cls-1" d="M257.19,312.4c-.77-.38-1.38-.69-1.99-.99-.17.23-.34.45-.52.68,1.27,1.06,2.55,2.13,3.94,3.29-.65,0-1.49-.19-2.19.04-1.16.38-2.69.74-3.25,1.62-2.55,4.06-6.49,6.39-10.04,9.32-1.89,1.56-4.11,2.46-5.98,3.96-2.27,1.81-5.35,2.62-8.14,3.72-3.43,1.36-7.46.71-10.61,3.2-.43.34-1.6-.41-2.41-.37-3.93.15-7.79.16-11.43-1.76-.54-.28-1.54.33-1.99.44-2.28-1.01-4.37-1.82-6.35-2.85-2.01-1.05-4.02-2.17-5.82-3.54-4.41-3.36-9.14-6.32-12.64-10.83-.77-1-3.17-.73-4.82-1.04,1.1-.61,2.29-1.26,3.09-1.7-1.41-1.52-2.56-2.64-3.58-3.88-1.92-2.36-3.95-4.66-5.56-7.21-1.43-2.27-2.35-4.87-3.54-7.3-.26-.53-.72-.98-1.13-1.41-.32-.34-.86-.54-1.06-.92-1.2-2.26-2.27-4.59-3.52-6.82-1.55-2.76-3.38-5.38-4.85-8.19-2.22-4.25-4.35-8.55-6.27-12.94-1.04-2.38-1.53-5.01-2.35-7.49-.36-1.08-1.09-2.05-1.37-3.14-.98-3.87-1.82-7.77-2.73-11.66-.11-.49-.24-1-.49-1.43-2.15-3.73-1.68-8.03-1-11.68.66-3.49,1.02-7.12,2.05-10.56.17-.57.94-.94,1.24-1.51,2.29-4.31,5.35-7.94,9.04-11.14,3.32-2.88,6.97-4.88,11.31-5.75,1.96-.39,3.82-1.28,6.22-2.12,1.14.94,2.28.37,3.68-1.25,2.15-2.49,3.49-5.32,4.99-8.18,1.91-3.63,4.59-6.86,6.93-10.27.74-1.08,1.43-2.19,2.14-3.29,1.89-2.93,3.71-5.92,5.7-8.78,1.58-2.27,3.43-4.35,5.03-6.6,2.04-2.86,3.97-5.8,5.92-8.72,2.49-3.73,5.03-7.43,7.39-11.24,1.71-2.76,2.98-5.81,4.77-8.51,1.9-2.87,2.66-6.43,5.62-8.73,1.16-.9,1.35-2.94,2.29-4.24,1.28-1.8,3-3.29,4.24-5.11,1.18-1.73,1.97-3.73,2.97-5.59.31-.57.67-1.14,1.11-1.6,2.12-2.23,3.24-4.94,4.3-7.8.73-1.98,2.39-3.6,3.51-5.45.32-.53.22-1.31.36-2.31,1.04-1.74,2.38-3.98,3.71-6.22.95-1.61,1.88-3.24,2.8-4.86.2-.36.37-.74.51-1.12,2.58-7.42,2.84-15.04,2.36-22.8-.13-2.07-.58-4.21.6-6.45.93-1.77,1.04-4.27.71-6.32-.47-2.94,1.68-4.72,2.46-7.04,1.09-3.21,3.83-5.06,7.35-5.58,1.34-.2,2.31-2.77,3.96-.87.99,1.14,1.27,2.96,2.34,3.96,1.58,1.49,1.33,2.51.02,3.86-.27.27-.17,1.01-.08,1.5,1.11,5.72-1.86,10.29-4.21,15.04-.07.15-.18.32-.16.48.26,3.16-1.41,5.73-2.39,8.55-1.07,3.07-1.84,6.41-1.85,9.64-.02,5.85-2.88,11.08-2.8,17.06.07,5.12-.06,10.34-.44,15.5-.08,1.1-.7,2.15-.87,3.26-.12.78,0,1.64.18,2.42.35,1.45,1.18,2.86,1.19,4.29.03,5.91-.27,11.81-.22,17.72.02,2.22.68,4.44,1.05,6.65.1.57.24,1.14.28,1.71.12,1.5.2,3.01.33,4.99-.05.03-.7.37-2.25,1.19,4.46.15,4,2.72,4.09,5.12.06,1.5.57,2.98.77,4.48.06.49-.36,1.03-.34,1.54.04,1.02.08,2.07.38,3.03.31.99,1.22,1.84,1.38,2.83,1.08,6.6,2.9,12.98,5.04,19.3.91,2.7,2.72,5.31,1.72,8.47-.12.4.49,1,.69,1.53.95,2.46,3.25,5.49,2.53,7.28-1.45,3.58.77,4.26,2.54,5.85,1.16,1.04.67,5.4-.76,7.3,2.87-1.11,3.44.37,3.72,2.57.36,2.87,2.33,5.49,1.3,8.6-.09.27.49.71.53,1.09.14,1.23.17,2.47.24,3.64.54,2.01,1.21,4.01,1.58,6.06.42,2.34.79,4.73.79,7.1,0,4.63-.05,9.27-.49,13.87-.35,3.66-1.03,7.35-2.08,10.88-1.69,5.69-3.55,11.36-5.85,16.83-1.35,3.23-3.77,6-5.53,9.08-1.37,2.4-2.36,5.01-3.69,7.44-1.68,3.07-3.54,6.04-5.41,9.2ZM177.17,206.92c-2.53,1.44-4.86,1.73-5.85,4.43-.74,2.03-2.16,3.8-3.1,5.77-.93,1.93-1.65,3.97-2.42,5.97-.14.37,0,.85-.15,1.2-1.75,3.93-3.48,7.88-5.33,11.76-.9,1.89-.8,4.43-3.2,5.39-1.01.4-2.1.62-3.16.86-.8.19-1.63.29-2.44.43.02-.99-.11-2.01.09-2.96.86-4.07,1.51-8.24,2.85-12.15.97-2.81,2.91-5.29,4.43-7.92.39-.68.88-1.31,1.24-2.01.81-1.56,1.54-3.15,2.34-4.71.65-1.26,1.94-2.4.78-3.93-.98.42-1.78.78-2.6,1.1-2.25.86-4.74,1.33-6.68,2.63-1.98,1.34-3.63,3.33-5.04,5.31-2.54,3.55-5.76,7-5.81,11.61-.05,4.68.72,9.38,1.18,14.06.21,2.11.32,4.27.87,6.3,1,3.7,2.53,7.27,3.39,11,1.18,5.07,3.98,9.37,6.13,13.96,2,4.25,4.83,8.11,7.21,12.19.63,1.07.79,2.43,1.46,3.47,1.08,1.66,2.51,3.1,3.63,4.75,2.68,3.97,5.16,8.08,7.92,11.99,1.42,2.02,4.31,3.55,4.69,5.64.67,3.71,2.53,4.16,4.94,3.75.21,4.09,5.55,3.82,5.82,7.12.95.22,1.81.22,2.45.59,1.94,1.14,3.65,2.88,5.73,3.56,4.95,1.63,9.89,3.46,15.37,2.64,3.59-.54,7.19-.65,10.6-2.19,1.8-.81,3.87-.99,5.8-1.52.46-.13.86-.5,1.26-.79,2.92-2.13,5.83-4.28,8.76-6.41,1.53-1.11,4.01-1.37,3.66-4.15-.02-.13.25-.33.41-.45,4.74-3.33,7.75-7.93,10.1-13.15,2.24-4.98,4.81-9.82,7.33-14.67.97-1.87,2.91-3.51,3.17-5.42.56-4.25,1.23-8.34,3.55-12.05.31-.49.12-1.31.13-1.97,0-.64-.16-1.3-.04-1.91.41-2.09,1.19-4.13,1.32-6.23.59-9.11.72-18.18-1.55-27.19-.58-2.29-2.69-4.87-.51-7.5-.15-.08-.39-.13-.43-.25-.95-2.56-1.92-5.12-2.8-7.71-.71-2.1-1.3-4.23-1.97-6.35-.35-1.12-.59-2.31-1.15-3.31-.96-1.7-.12-4.89-3.37-4.43.66-.5,1.42-1.08,1.62-1.23-.75-2.27-1.38-4.02-1.89-5.8-1.47-5.06-3.08-10.1-4.28-15.22-1.75-7.47-3.37-14.97-4.72-22.52-.99-5.53-1.46-11.16-2.18-16.75-.68-5.24-1.53-10.46-2.03-15.72-.4-4.28-.42-8.6-.56-12.9-.16-5.06-.27-10.13-.42-15.2-.02-.67-.16-1.33-.24-2-.57.55-1.32,1.01-1.67,1.68-2.11,4.07-4.14,8.18-6.18,12.28-.72,1.46-1.41,2.93-2.31,4.81-.3.15-1.61.37-1.84.99-1.19,3.2-2.73,6.11-5.25,8.47-.22.21-.16.68-.35.95-1.71,2.48-3.44,4.94-5.16,7.42-.91,1.32-1.8,2.67-2.7,4-.35,1.11-1.18,1.91-1.83,2.85-.89,1.28-1.69,2.63-2.45,4-1.43,2.55-2.76,5.16-4.23,7.7-1.55,2.69-4.84,4.15-5.39,7.57-2.99.39-2.82,2.69-2.75,4.67-.8.31-1.94.62-1.92.76.34,2.33-1.63,3.41-2.61,4.99-1.65,2.68-3.36,5.32-5.14,7.91-1.63,2.38-3.79,4.47-5.02,7.03-2.27,4.74-4.2,9.62-8.84,13.81,1.78.56,2.97,1.07,4.21,1.29,2.34.41,7.98-1.15,7.06,1.03"/>
</svg>